HIERARCHY
ROOT Hips
{
	OFFSET 0.000000 89.005402 0.000000
	CHANNELS 6 Xposition Yposition Zposition Xrotation Yrotation Zrotation
	JOINT Spine
	{
		OFFSET 0.116900 10.681000 0.373400
		CHANNELS 3 Xrotation Yrotation Zrotation
		JOINT Spine1
		{
			OFFSET 0.000000 13.840401 0.053500
			CHANNELS 3 Xrotation Yrotation Zrotation
			JOINT Spine2
			{
				OFFSET 0.000000 14.712700 -0.366200
				CHANNELS 3 Xrotation Yrotation Zrotation
				JOINT Neck
				{
					OFFSET 0.000000 35.415497 -3.314200
					CHANNELS 3 Xrotation Yrotation Zrotation
					JOINT Head
					{
						OFFSET 0.000000 16.899200 1.218300
						CHANNELS 3 Xrotation Yrotation Zrotation
						JOINT HeadTop_End
						{
							OFFSET 0.000000 22.206207 2.192500
							CHANNELS 3 Xrotation Yrotation Zrotation
							End Site
							{
								OFFSET 0.000000 22.314178 0.000000
							}
						}
					}
				}
				JOINT LeftShoulder
				{
					OFFSET 12.896400 26.716293 -4.548400
					CHANNELS 3 Xrotation Yrotation Zrotation
					JOINT LeftArm
					{
						OFFSET 19.027000 -4.857010 -1.718400
						CHANNELS 3 Xrotation Yrotation Zrotation
						JOINT LeftForeArm
						{
							OFFSET 24.179897 0.000000 0.000000
							CHANNELS 3 Xrotation Yrotation Zrotation
							JOINT LeftHand
							{
								OFFSET 27.156403 0.000000 0.000000
								CHANNELS 3 Xrotation Yrotation Zrotation
								JOINT LeftHandIndex1
								{
									OFFSET 16.441200 0.000000 0.000000
									CHANNELS 3 Xrotation Yrotation Zrotation
									JOINT LeftHandIndex2
									{
										OFFSET 4.821899 0.000000 0.000000
										CHANNELS 3 Xrotation Yrotation Zrotation
										JOINT LeftHandIndex3
										{
											OFFSET 6.386497 0.000000 0.000000
											CHANNELS 3 Xrotation Yrotation Zrotation
											JOINT LeftHandIndex4
											{
												OFFSET 5.188988 0.000000 0.000000
												CHANNELS 3 Xrotation Yrotation Zrotation
												End Site
												{
													OFFSET -0.178703 5.185913 0.000177
												}
											}
										}
									}
								}
								JOINT LeftHandThumb1
								{
									OFFSET 6.534897 -5.032593 5.900300
									CHANNELS 3 Xrotation Yrotation Zrotation
									JOINT LeftHandThumb2
									{
										OFFSET 3.818176 -2.204422 2.204423
										CHANNELS 3 Xrotation Yrotation Zrotation
										JOINT LeftHandThumb3
										{
											OFFSET 3.252098 -1.877594 1.877601
											CHANNELS 3 Xrotation Yrotation Zrotation
											JOINT LeftHandThumb4
											{
												OFFSET 5.251778 -3.032120 3.032117
												CHANNELS 3 Xrotation Yrotation Zrotation
												End Site
												{
													OFFSET 0.000023 6.780014 0.000000
												}
											}
										}
									}
								}
							}
						}
					}
				}
				JOINT RightShoulder
				{
					OFFSET -12.896300 26.716293 -4.548400
					CHANNELS 3 Xrotation Yrotation Zrotation
					JOINT RightArm
					{
						OFFSET -19.027000 -4.857010 -1.718400
						CHANNELS 3 Xrotation Yrotation Zrotation
						JOINT RightForeArm
						{
							OFFSET -24.179897 0.000000 0.000000
							CHANNELS 3 Xrotation Yrotation Zrotation
							JOINT RightHand
							{
								OFFSET -27.156403 0.000000 0.000000
								CHANNELS 3 Xrotation Yrotation Zrotation
								JOINT RightHandThumb1
								{
									OFFSET -6.591202 -4.852203 5.988100
									CHANNELS 3 Xrotation Yrotation Zrotation
									JOINT RightHandThumb2
									{
										OFFSET -3.818176 -2.204422 2.204423
										CHANNELS 3 Xrotation Yrotation Zrotation
										JOINT RightHandThumb3
										{
											OFFSET -3.252098 -1.877594 1.877601
											CHANNELS 3 Xrotation Yrotation Zrotation
											JOINT RightHandThumb4
											{
												OFFSET -5.251778 -3.032120 3.032117
												CHANNELS 3 Xrotation Yrotation Zrotation
												End Site
												{
													OFFSET -0.000023 6.780014 0.000000
												}
											}
										}
									}
								}
								JOINT RightHandIndex1
								{
									OFFSET -16.029404 0.000000 0.000000
									CHANNELS 3 Xrotation Yrotation Zrotation
									JOINT RightHandIndex2
									{
										OFFSET -5.213303 0.000000 0.000000
										CHANNELS 3 Xrotation Yrotation Zrotation
										JOINT RightHandIndex3
										{
											OFFSET -6.386528 0.000000 0.000000
											CHANNELS 3 Xrotation Yrotation Zrotation
											JOINT RightHandIndex4
											{
												OFFSET -5.189026 0.000000 0.000000
												CHANNELS 3 Xrotation Yrotation Zrotation
												End Site
												{
													OFFSET 0.236702 5.183624 0.001972
												}
											}
										}
									}
								}
							}
						}
					}
				}
			}
		}
	}
	JOINT LeftUpLeg
	{
		OFFSET 14.073000 -7.904099 -1.463000
		CHANNELS 3 Xrotation Yrotation Zrotation
		JOINT LeftLeg
		{
			OFFSET -0.109806 -34.073280 4.093200
			CHANNELS 3 Xrotation Yrotation Zrotation
			JOINT LeftFoot
			{
				OFFSET 0.109806 -29.899420 -6.319000
				CHANNELS 3 Xrotation Yrotation Zrotation
				JOINT LeftToeBase
				{
					OFFSET 1.551100 -14.988700 20.535801
					CHANNELS 3 Xrotation Yrotation Zrotation
					JOINT LeftToe_End
					{
						OFFSET 0.221200 0.570800 13.248301
						CHANNELS 3 Xrotation Yrotation Zrotation
						End Site
						{
							OFFSET 0.000000 13.262435 0.000000
						}
					}
				}
			}
		}
	}
	JOINT RightUpLeg
	{
		OFFSET -13.839300 -7.904099 -1.463000
		CHANNELS 3 Xrotation Yrotation Zrotation
		JOINT RightLeg
		{
			OFFSET 0.109694 -34.073219 4.093300
			CHANNELS 3 Xrotation Yrotation Zrotation
			JOINT RightFoot
			{
				OFFSET -0.109694 -29.899384 -6.319200
				CHANNELS 3 Xrotation Yrotation Zrotation
				JOINT RightToeBase
				{
					OFFSET -1.551100 -14.988700 20.535801
					CHANNELS 3 Xrotation Yrotation Zrotation
					JOINT RightToe_End
					{
						OFFSET -0.221200 0.570900 13.248299
						CHANNELS 3 Xrotation Yrotation Zrotation
						End Site
						{
							OFFSET 0.000000 13.262440 0.000000
						}
					}
				}
			}
		}
	}
}
MOTION
Frames: 4
Frame Time: 0.033333
29.081512 32.737946 -26.485909 12.914995 12.659619 1.647715 36.813012 -0.297762 -8.141238 2.764386 0.353687 0.448385 2.758975 0.408168 0.429136 0.992327 0.478132 -1.661163 -19.201299 0.232006 1.437568 -0.000001 0.000001 -0.000000 2.449141 -28.180958 3.501419 -41.660469 -50.418858 -57.674165 0.000003 -28.218858 -0.000008 67.755449 -8.351348 46.728104 0.428675 4.394492 -20.294539 0.195374 1.501813 -14.823290 0.292339 1.829210 -18.158471 0.000001 0.000001 -0.000002 -2.143073 -9.345335 24.898712 5.975214 12.647536 1.348337 -7.335824 -0.421719 13.147356 0.000001 -0.000002 -0.000000 4.603179 24.427716 13.010970 -31.413976 47.133022 41.548119 0.000008 25.336339 -0.000019 45.956894 -4.490290 -66.759983 1.907566 -4.780898 -20.489027 1.351002 -2.133784 0.517222 -5.504771 -5.510962 -14.718518 0.000002 0.000001 -0.000000 0.080763 -2.833363 6.784769 0.087236 -0.898116 11.095195 0.032096 -0.546403 6.723226 -0.000000 0.000001 -0.000001 -33.757223 -2.197525 22.138976 145.811794 13.633680 2.134467 -19.682638 3.092515 -8.547147 -83.648944 16.156141 -0.543625 0.000000 -0.000002 0.000002 -23.398918 1.741155 -35.477597 143.937576 -1.427422 0.954035 -13.428550 -2.327932 14.068936 -13.262475 -28.537427 -56.849177 0.000000 -0.000001 -0.000001 
29.081482 32.737885 -26.486021 12.914986 12.659617 1.647717 36.812964 -0.297749 -8.141253 2.764377 0.353687 0.448386 2.758977 0.408171 0.429133 0.992315 0.478130 -1.661158 -19.201286 0.232006 1.437568 -0.000003 -0.000001 0.000001 2.449136 -28.180964 3.501421 -41.660496 -50.418848 -57.674186 -0.000001 -28.218867 -0.000029 67.755463 -8.351321 46.728107 0.428683 4.394504 -20.294543 0.195371 1.501804 -14.823281 0.292329 1.829211 -18.158475 0.000002 0.000000 0.000001 -2.143071 -9.345335 24.898719 5.975216 12.647545 1.348338 -7.335820 -0.421723 13.147353 0.000003 -0.000000 0.000004 4.603191 24.427724 13.010968 -31.413980 47.133018 41.548109 0.000010 25.336341 -0.000019 45.956890 -4.490299 -66.759983 1.907567 -4.780876 -20.489022 1.351000 -2.133786 0.517221 -5.504772 -5.510956 -14.718516 0.000001 -0.000002 0.000004 0.080761 -2.833348 6.784768 0.087236 -0.898121 11.095197 0.032094 -0.546411 6.723224 -0.000001 0.000003 -0.000001 -33.756813 -2.197382 22.138964 145.811917 13.633786 2.134497 -19.683142 3.092646 -8.547347 -83.648575 16.155718 -0.543002 -0.000002 0.000001 -0.000000 -23.399004 1.741139 -35.477550 143.937590 -1.427630 0.953975 -13.428392 -2.327922 14.068941 -13.262623 -28.537193 -56.849280 -0.000001 0.000001 0.000000 
29.104824 32.820572 -26.406572 12.804320 12.689881 1.642926 36.797726 -0.240502 -8.105269 2.749806 0.361461 0.435198 2.744299 0.415971 0.415755 0.901556 0.439683 -1.513076 -19.389925 0.203827 1.368068 -0.000003 0.000002 -0.000000 2.174044 -28.127067 1.646238 -40.482600 -51.789185 -55.956424 -0.000011 -27.684502 -0.000029 67.628879 -8.477896 46.782377 0.439013 4.422127 -20.583298 0.200159 1.519764 -15.004700 0.299986 1.852354 -18.396652 -0.000001 -0.000001 -0.000002 -2.143074 -9.345341 24.898708 5.975219 12.647542 1.348333 -7.335819 -0.421723 13.147353 0.000002 0.000001 0.000003 4.433403 24.866205 13.677582 -30.611730 46.823334 40.412976 -0.000003 25.324354 -0.000003 46.208651 -4.234363 -66.775283 1.834730 -4.754554 -20.630016 1.351000 -2.133809 0.517229 -5.504762 -5.510977 -14.718527 -0.000000 0.000000 -0.000000 0.080763 -2.833350 6.784768 0.101087 -0.966065 11.946554 0.035119 -0.571505 7.033374 0.000001 -0.000000 0.000002 -33.725152 -2.144886 22.007921 145.586124 13.945382 2.177525 -19.309450 3.110946 -8.701685 -83.236046 15.572488 0.301511 0.000000 -0.000001 -0.000002 -23.332647 1.609236 -35.321804 143.699407 -1.620202 0.909045 -13.214088 -2.331545 14.175545 -13.251815 -28.553655 -56.824814 0.000003 -0.000001 -0.000002 
29.122015 32.908455 -26.321922 12.724794 12.737323 1.638120 36.792952 -0.223612 -8.073325 2.758799 0.358031 0.446058 2.753299 0.413179 0.426577 0.676088 0.428682 -1.498325 -19.479874 0.132164 1.407098 -0.000001 0.000001 0.000000 1.891786 -27.967012 -0.407725 -38.833840 -53.297312 -53.714602 0.000012 -27.407263 0.000016 67.383211 -8.554096 46.888105 0.456183 4.467152 -21.054468 0.205226 1.538542 -15.194862 0.311046 1.885271 -18.735673 0.000003 0.000001 -0.000002 -2.143068 -9.345337 24.898708 5.975216 12.647552 1.348335 -7.335828 -0.421738 13.147342 -0.000001 -0.000001 0.000000 4.325585 25.091979 13.838365 -30.519925 46.603600 40.220375 0.000001 25.028006 -0.000001 46.608729 -4.048684 -66.999894 1.779105 -4.762735 -20.746869 1.351003 -2.133826 0.517217 -5.504769 -5.510955 -14.718521 -0.000001 0.000000 -0.000001 0.080762 -2.833355 6.784768 0.119696 -1.050204 13.004627 0.038840 -0.600801 7.396199 0.000001 -0.000002 -0.000001 -33.522179 -2.052509 21.842412 145.469833 14.063578 2.198704 -19.529116 3.166484 -8.721641 -82.933926 15.763021 -0.146204 0.000001 0.000000 -0.000001 -23.291044 1.443268 -35.135487 143.457496 -1.841397 0.856074 -13.015109 -2.355604 14.316338 -13.235420 -28.576110 -56.787928 0.000002 0.000001 -0.000001 
